<?xml version="1.0" encoding="UTF-8" standalone="no"?>
<svg
   stroke-linejoin="round"
   stroke-width="28.222"
   fill-rule="evenodd"
   preserveAspectRatio="xMidYMid"
   viewBox="0 0 9207.5001 1904.9999"
   height="72"
   width="348"
   version="1.2"
   id="svg508"
   sodipodi:docname="logo-sc_inverted.svg"
   inkscape:version="1.2.2 (b0a8486541, 2022-12-01)"
   xmlns:inkscape="http://www.inkscape.org/namespaces/inkscape"
   xmlns:sodipodi="http://sodipodi.sourceforge.net/DTD/sodipodi-0.dtd"
   xmlns="http://www.w3.org/2000/svg"
   xmlns:svg="http://www.w3.org/2000/svg">
  <defs
     id="defs512" />
  <sodipodi:namedview
     id="namedview510"
     pagecolor="#ffffff"
     bordercolor="#666666"
     borderopacity="1.0"
     inkscape:showpageshadow="2"
     inkscape:pageopacity="0.0"
     inkscape:pagecheckerboard="0"
     inkscape:deskcolor="#d1d1d1"
     showgrid="false"
     inkscape:zoom="5.6136902"
     inkscape:cx="172.97"
     inkscape:cy="33.400489"
     inkscape:window-width="3840"
     inkscape:window-height="2075"
     inkscape:window-x="0"
     inkscape:window-y="0"
     inkscape:window-maximized="1"
     inkscape:current-layer="svg508" />
  <g
     class="SlideGroup"
     id="g506">
    <path
       fill="#18a303"
       d="m 2121.35,79.926 v 1032.38 h 666.052 V 955.784 H 2324.496 V 79.926 Z m 795.163,1034.045 h 204.811 V 369.66 h -204.81 z m 103.238,-807.587 c 63.275,0 116.56,-51.619 116.56,-118.224 0,-63.275 -53.285,-116.559 -116.56,-116.559 -66.605,0 -118.224,53.284 -118.224,116.559 0,66.605 51.62,118.224 118.224,118.224 z m 454.58,149.861 h -3.33 V 16.651 h -203.146 v 1095.655 h 199.816 l 3.33,-86.587 h 3.33 c 63.274,71.601 128.214,101.573 231.452,101.573 198.151,0 328.031,-178.169 328.031,-399.63 0,-214.802 -116.559,-372.99 -318.04,-372.99 -108.233,0 -171.508,31.638 -241.443,101.573 z m -3.33,268.086 c 0,-128.215 58.28,-213.137 166.513,-213.137 121.554,0 183.164,86.587 183.164,228.123 0,139.871 -59.944,231.453 -179.833,231.453 -104.903,0 -169.843,-81.59 -169.843,-213.137 z M 4578.312,353.007 c -96.577,6.66 -189.824,64.94 -233.118,148.197 h -1.66 l -4.99,-133.211 h -199.815 v 744.313 h 204.81 V 830.9 c 0,-148.196 26.643,-201.48 73.266,-234.783 41.628,-29.972 89.917,-41.628 156.522,-44.958 z m 745.978,343.017 c 0,-184.83 -113.23,-343.017 -306.384,-343.017 -234.783,0 -384.645,161.518 -384.645,406.292 0,239.778 154.857,367.993 384.645,367.993 108.232,0 183.164,-16.65 254.765,-49.954 l -21.647,-151.527 c -66.605,28.308 -134.875,44.96 -208.141,44.96 -123.22,0 -201.481,-56.615 -209.807,-173.174 H 5314.3 c 6.66,-26.643 9.99,-69.936 9.99,-101.573 z M 4996.258,509.53 c 88.253,0 129.88,71.601 131.545,148.197 h -286.401 c 14.987,-84.922 74.93,-148.197 154.856,-148.197 z"
       id="path496" />
    <path
       fill="#ffffff"
       d="m 5937.056,64.94 c -271.416,0 -496.207,199.815 -496.207,531.176 0,331.361 224.791,531.176 496.207,531.176 274.746,0 497.874,-199.815 497.874,-531.176 0,-331.361 -223.128,-531.176 -497.874,-531.176 z m 0,103.238 c 204.811,0 358.004,153.192 358.004,427.938 0,276.411 -153.193,427.938 -358.004,427.938 -201.48,0 -356.338,-151.527 -356.338,-427.938 0,-274.746 154.857,-427.938 356.338,-427.938 z m 691.03,159.852 v 46.624 h -119.89 v 96.577 h 119.89 v 639.41 H 6756.3 v -639.41 h 188.159 v -96.577 h -188.16 v -66.605 c 0,-133.21 54.95,-211.471 158.188,-211.471 46.625,0 76.597,8.32 104.904,18.316 l 13.32,-93.247 C 7004.405,9.991 6952.785,0 6912.82,0 6731.323,0 6628.085,116.559 6628.085,328.03 Z"
       id="path498" />
    <path
       fill="#ffffff"
       d="m 7049.363,328.03 v 46.624 h -119.89 v 96.577 h 119.89 v 639.41 h 128.214 v -639.41 h 188.16 v -96.577 h -188.16 v -66.605 c 0,-133.21 54.95,-211.471 158.189,-211.471 46.623,0 76.595,8.32 104.903,18.316 l 13.32,-93.247 C 7427.349,9.991 7375.729,0 7334.1,0 7152.602,0 7049.364,116.559 7049.364,328.03 Z m 514.157,784.276 H 7693.4 V 374.654 h -129.88 z m 64.94,-845.885 c 44.959,0 79.927,-34.968 79.927,-78.261 0,-44.959 -34.968,-79.927 -79.927,-79.927 -44.958,0 -79.925,34.968 -79.925,79.927 0,43.293 34.967,78.261 79.925,78.261 z m 326.366,474.561 c 0,-186.494 111.563,-283.072 256.429,-283.072 74.932,0 141.536,16.652 196.486,43.294 l 13.32,-98.243 c -46.622,-21.647 -119.888,-43.293 -199.815,-43.293 -228.123,0 -399.631,138.205 -399.631,397.965 0,243.11 154.857,369.66 359.668,369.66 91.583,0 156.522,-9.99 231.453,-43.294 l -11.655,-96.578 c -64.941,29.973 -133.212,43.294 -196.485,43.294 -148.197,0 -249.77,-93.248 -249.77,-289.733 z m 1182.241,31.638 c 3.33,-26.642 4.99,-49.954 4.99,-73.266 0,-188.16 -99.908,-339.686 -289.732,-339.686 -204.811,0 -354.672,171.508 -354.672,397.965 0,249.77 149.86,369.66 354.672,369.66 91.582,0 159.852,-13.322 231.452,-43.294 l -11.655,-96.578 c -56.615,26.642 -138.206,43.294 -201.481,43.294 -146.531,0 -243.11,-89.917 -244.774,-258.095 z M 8842.339,457.91 c 111.563,0 173.173,91.582 173.173,214.802 h -384.645 c 18.317,-129.88 89.917,-214.802 211.472,-214.802 z M 1042.371,0.001 c -16.652,0 -33.303,9.99 -39.964,26.642 -6.66,14.986 -3.33,33.302 8.33,44.958 l 366.329,366.328 c 11.656,13.322 29.972,16.652 46.623,9.99 14.986,-6.66 26.642,-21.646 26.642,-38.298 V 41.628 C 1450.331,19.981 1430.349,0 1407.038,0 Z m 0,0 z m -999.077,0 C 19.982,0.001 0,19.982 0,43.294 v 1666.794 c 0,21.646 19.982,41.628 43.294,43.293 h 1363.74 c 21.646,0 41.628,-21.647 41.628,-43.293 V 636.08 c 0,-11.656 -3.33,-21.647 -11.656,-29.973 L 847.551,13.322 C 839.221,4.992 827.569,0.001 815.913,0.001 Z M 84.922,86.587 H 797.597 L 1363.74,654.396 V 1666.794 H 84.922 Z m 0,0 z"
       id="path500" />
    <g
       style="line-height:1.25"
       aria-label="The Document Foundation"
       font-weight="400"
       font-size="652.639px"
       font-family="Vegur"
       letter-spacing="0"
       word-spacing="0"
       fill="#ffffff"
       stroke-width="746.707"
       id="g504">
      <path
         style="-inkscape-font-specification:'Vegur, Normal';font-variant-ligatures:normal;font-variant-caps:normal;font-variant-numeric:normal;font-variant-east-asian:normal"
         d="m 2445.206,1350.341 v -46.99 H 2120.19 v 46.99 h 135.75 v 399.415 h 53.516 v -399.415 z m 97.895,-80.275 h -53.516 v 479.69 h 53.516 v -174.255 c 0,-54.168 34.59,-97.243 76.36,-97.243 48.947,0 69.179,34.59 69.179,78.97 v 192.528 h 53.516 v -208.192 c 0,-63.958 -36.548,-110.296 -103.77,-110.296 -37.2,0 -77.01,18.927 -95.285,62.001 z m 500.574,420.3 c -22.19,13.705 -51.559,22.842 -78.97,22.842 -62.653,0 -95.285,-30.674 -98.548,-101.159 h 195.139 c 1.958,-10.442 2.61,-16.968 2.61,-26.758 0,-84.843 -33.284,-154.023 -114.211,-154.023 -84.19,0 -139.665,66.57 -139.665,170.992 0,101.811 55.474,154.023 141.622,154.023 36.548,0 71.138,-8.485 94.633,-21.538 z m -176.213,-122.043 c 4.569,-54.822 33.285,-91.37 76.359,-91.37 47.643,0 65.916,40.464 65.916,91.37 z m 424.215,179.475 c 26.105,5.221 67.221,8.484 92.022,8.484 153.37,0 265.624,-86.8 265.624,-240.17 0,-131.834 -80.927,-221.898 -248.656,-221.898 -28.716,0 -69.832,3.263 -108.99,7.832 z m 53.516,-402.678 c 19.58,-2.61 39.158,-3.916 53.516,-3.916 127.918,0 192.529,65.264 192.529,181.434 0,119.433 -86.801,186.654 -203.623,186.654 -9.79,0 -28.064,-1.305 -42.422,-3.263 z m 500.573,86.148 c -88.758,0 -144.885,65.264 -144.885,162.507 0,97.244 56.127,162.507 144.885,162.507 88.76,0 144.886,-65.263 144.886,-162.507 0,-97.243 -56.127,-162.507 -144.886,-162.507 z m 0,43.074 c 56.78,0 86.149,52.212 86.149,119.433 0,67.222 -29.369,119.433 -86.149,119.433 -56.779,0 -86.148,-52.21 -86.148,-119.433 0,-67.221 29.369,-119.433 86.148,-119.433 z m 423.562,223.203 c -19.579,9.79 -43.727,15.663 -65.916,15.663 -65.917,0 -104.423,-41.769 -104.423,-119.433 0,-80.274 45.685,-118.127 103.77,-118.127 27.41,0 50.906,6.526 69.832,16.968 l 4.569,-46.99 c -17.621,-8.484 -45.032,-14.358 -76.359,-14.358 -84.19,0 -160.55,57.432 -160.55,166.423 0,108.338 66.57,158.591 151.413,158.591 31.98,0 60.696,-6.526 82.233,-15.01 z m 322.402,-259.75 h -53.515 v 174.254 c 0,54.17 -34.59,97.243 -76.36,97.243 -48.947,0 -69.179,-34.59 -69.179,-78.969 v -192.528 h -53.516 v 208.191 c 0,63.96 36.547,110.296 103.77,110.296 37.852,0 78.968,-19.579 96.59,-65.263 l 3.916,58.737 h 48.295 z m 139.665,0 h -48.296 v 311.961 h 53.517 v -174.255 c 0,-54.168 30.674,-97.243 70.485,-97.243 45.685,0 62,33.285 62,79.622 v 191.876 h 53.517 v -174.255 c 0,-54.168 30.674,-97.243 70.485,-97.243 45.685,0 62,33.285 62,79.622 v 191.876 h 53.517 v -207.54 c 0,-62.652 -30.674,-110.948 -96.59,-110.948 -40.464,0 -73.749,20.885 -95.938,65.917 -11.748,-39.158 -41.117,-65.917 -90.065,-65.917 -38.505,0 -74.4,20.232 -90.716,63.959 z m 678.743,252.571 c -22.19,13.705 -51.558,22.842 -78.97,22.842 -62.652,0 -95.284,-30.674 -98.548,-101.159 h 195.14 c 1.957,-10.442 2.61,-16.968 2.61,-26.758 0,-84.843 -33.285,-154.023 -114.212,-154.023 -84.19,0 -139.665,66.57 -139.665,170.992 0,101.811 55.475,154.023 141.623,154.023 36.548,0 71.138,-8.485 94.633,-21.538 z m -176.212,-122.043 c 4.568,-54.822 33.284,-91.37 76.358,-91.37 47.643,0 65.917,40.464 65.917,91.37 z m 318.487,-130.528 h -48.295 v 311.961 h 53.516 v -174.255 c 0,-54.168 34.59,-97.243 76.359,-97.243 48.948,0 69.18,34.59 69.18,78.97 v 192.528 h 53.516 v -208.192 c 0,-63.958 -36.548,-110.296 -103.77,-110.296 -37.853,0 -78.969,19.58 -96.59,65.264 z m 366.13,2.61 v -82.232 h -53.517 v 82.232 h -48.948 v 41.77 h 48.948 v 181.433 c 0,67.874 36.548,92.675 88.76,92.675 18.273,0 37.2,-3.916 48.947,-9.79 l -2.61,-39.811 c -11.095,4.568 -22.843,5.874 -34.59,5.874 -28.064,0 -46.99,-16.316 -46.99,-52.864 v -177.518 h 84.19 v -41.769 z m 538.426,-90.064 v -46.99 h -238.866 v 446.405 h 53.517 v -180.78 h 164.465 v -46.99 H 6271.62 V 1350.34 Z m 180.781,80.927 c -88.759,0 -144.886,65.264 -144.886,162.507 0,97.244 56.127,162.507 144.886,162.507 88.759,0 144.886,-65.263 144.886,-162.507 0,-97.243 -56.127,-162.507 -144.886,-162.507 z m 0,43.074 c 56.779,0 86.148,52.212 86.148,119.433 0,67.222 -29.369,119.433 -86.148,119.433 -56.78,0 -86.149,-52.21 -86.149,-119.433 0,-67.221 29.369,-119.433 86.149,-119.433 z m 465.33,-36.547 h -53.516 v 174.254 c 0,54.17 -34.59,97.243 -76.359,97.243 -48.948,0 -69.18,-34.59 -69.18,-78.969 v -192.528 h -53.516 v 208.191 c 0,63.96 36.548,110.296 103.77,110.296 37.853,0 78.969,-19.579 96.59,-65.263 l 3.916,58.737 h 48.295 z m 139.664,0 h -48.295 v 311.961 h 53.516 v -174.255 c 0,-54.168 34.59,-97.243 76.359,-97.243 48.948,0 69.18,34.59 69.18,78.97 v 192.528 h 53.516 v -208.192 c 0,-63.958 -36.547,-110.296 -103.769,-110.296 -37.853,0 -78.97,19.58 -96.591,65.264 z m 556.048,-167.729 h -53.517 v 216.024 c -11.747,-31.327 -45.684,-54.822 -88.106,-54.822 -82.885,0 -142.275,68.527 -142.275,166.423 0,94.633 54.169,158.591 133.791,158.591 45.032,0 78.969,-25.452 97.896,-63.305 l 3.915,56.78 h 48.296 z m -53.517,343.941 c 0,54.17 -42.421,95.938 -85.495,95.938 -56.127,0 -86.149,-52.211 -86.149,-114.864 0,-73.096 37.853,-118.78 88.107,-118.78 46.99,0 83.537,45.032 83.537,103.769 z m 159.244,-114.864 c 26.106,-15.664 56.78,-23.495 80.275,-23.495 45.684,0 70.485,20.884 70.485,62.653 v 24.148 c -11.748,-2.61 -28.716,-3.916 -43.727,-3.916 -75.054,0 -136.402,35.895 -136.402,107.033 0,60.695 44.38,90.716 91.37,90.716 41.116,0 71.137,-18.926 89.411,-52.863 l 5.874,46.337 h 46.99 V 1542.87 c 0,-69.18 -31.979,-111.6 -110.949,-111.6 -35.242,0 -71.137,9.136 -96.59,23.494 z m 150.76,129.875 c 0,51.558 -34.59,85.496 -71.791,85.496 -30.021,0 -50.905,-20.232 -50.905,-52.212 0,-37.853 33.937,-63.958 84.19,-63.958 13.705,0 28.063,1.305 38.506,3.916 z m 215.37,-188.613 v -82.232 h -53.517 v 82.232 h -48.948 v 41.77 h 48.948 v 181.433 c 0,67.874 36.548,92.675 88.759,92.675 18.274,0 37.201,-3.916 48.948,-9.79 l -2.61,-39.811 c -11.095,4.568 -22.843,5.874 -34.59,5.874 -28.064,0 -46.99,-16.316 -46.99,-52.864 v -177.518 h 84.19 v -41.769 z m 172.296,-116.822 c -18.274,0 -33.285,15.01 -33.285,33.284 0,18.274 15.011,33.285 33.285,33.285 18.273,0 33.284,-15.01 33.284,-33.285 0,-18.274 -15.011,-33.284 -33.284,-33.284 z m -26.759,426.173 h 53.517 v -311.961 h -53.517 z m 268.887,-318.488 c -88.759,0 -144.886,65.264 -144.886,162.507 0,97.244 56.127,162.507 144.886,162.507 88.758,0 144.885,-65.263 144.885,-162.507 0,-97.243 -56.127,-162.507 -144.885,-162.507 z m 0,43.074 c 56.779,0 86.148,52.212 86.148,119.433 0,67.222 -29.369,119.433 -86.148,119.433 -56.78,0 -86.149,-52.21 -86.149,-119.433 0,-67.221 29.369,-119.433 86.149,-119.433 z m 263.665,-36.547 h -48.295 v 311.961 h 53.516 v -174.255 c 0,-54.168 34.59,-97.243 76.359,-97.243 48.948,0 69.18,34.59 69.18,78.97 v 192.528 h 53.516 v -208.192 c 0,-63.958 -36.548,-110.296 -103.77,-110.296 -37.853,0 -78.969,19.58 -96.59,65.264 z"
         id="path502" />
    </g>
  </g>
</svg>
